<svg width="300" xmlns="http://www.w3.org/2000/svg" height="31" viewBox="0 0 300 31" xmlns:xlink="http://www.w3.org/1999/xlink" enable-background="new 0 0 300 31">
<g fill="#fff">
<path d="m8.41,13.514h16.891v3.973h-16.891z"/>
<path d="m.151,1.211c-.1,.242-.151,.495-.151,.775v21.627c0,1.386 .241,2.547 .724,3.449 .495,.938 1.109,1.713 1.833,2.288 .732,.584 1.532,1 2.383,1.25 .885,.262 1.706,.4 2.435,.4h20.631v-3.936h-20.589c-1.077,0-1.936-.306-2.552-.915-.616-.613-.929-1.464-.929-2.536v-19.683h24.07v-3.93h-26.017c-.296,0-.557,.052-.801,.151-.239,.099-.442,.233-.615,.411-.181,.187-.319,.395-.422,.649z"/>
<path d="m93.428,29.026c.57-.444 1.08-.983 1.509-1.614 .434-.638 .788-1.384 1.06-2.228 .265-.837 .4-1.811 .4-2.88 0-1.081-.131-2.039-.39-2.872-.265-.844-.616-1.582-1.055-2.219-.439-.636-.953-1.185-1.517-1.631-.581-.47-1.202-.849-1.838-1.151-.646-.305-1.297-.542-1.944-.679-.656-.149-1.276-.225-1.854-.239h-13.836c-1.427,0-2.575-.451-3.418-1.329-.823-.862-1.241-2.021-1.241-3.442 0-1.397 .414-2.555 1.229-3.441 .844-.91 1.997-1.372 3.431-1.372h19.41v-3.929h-19.41c-.861,0-1.816,.16-2.839,.475-.992,.305-1.925,.806-2.784,1.497-.846,.685-1.563,1.59-2.132,2.69-.559,1.087-.842,2.456-.842,4.081 0,1.632 .284,3.006 .844,4.095 .568,1.106 1.284,2.011 2.127,2.687 .858,.688 1.792,1.186 2.786,1.493 1.023,.314 1.978,.469 2.839,.469h13.814c.684,0 1.326,.123 1.902,.354 .593,.239 1.102,.59 1.518,1.031 .414,.444 .725,.961 .945,1.55 .214,.574 .319,1.208 .319,1.883 0,1.402-.417,2.556-1.244,3.426-.837,.89-1.995,1.334-3.44,1.334h-22.133v3.935h22.133c.573,0 1.198-.073 1.852-.205 .657-.143 1.307-.355 1.945-.646 .633-.289 1.255-.67 1.854-1.123z"/>
<path d="m161.447,20.616c.672-.527 1.273-1.164 1.786-1.893 .511-.737 .931-1.599 1.237-2.562 .306-.976 .455-2.103 .455-3.363v-2.713c0-.667-.082-1.394-.231-2.163-.159-.756-.408-1.52-.753-2.268-.333-.749-.782-1.478-1.307-2.164-.507-.663-1.14-1.261-1.88-1.777-.729-.512-1.596-.93-2.572-1.243-.974-.312-2.093-.47-3.337-.47h-13.573c-.726,0-1.544,.136-2.427,.403-.857,.26-1.661,.689-2.397,1.268-.724,.566-1.333,1.329-1.825,2.269-.483,.924-.726,2.082-.726,3.445v23.615h3.936v-23.614c0-1.064 .312-1.914 .928-2.528 .616-.616 1.476-.928 2.554-.928h13.531c.923,0 1.757,.156 2.488,.463 .723,.309 1.357,.742 1.888,1.288 .512,.541 .913,1.199 1.208,1.952 .277,.712 .471,1.504 .555,2.344l.002,.109v2.713c0,.898-.146,1.72-.441,2.456-.3,.734-.732,1.379-1.284,1.906-.538,.529-1.192,.94-1.929,1.242-.723,.292-1.526,.471-2.399,.544l-.087,.004h-12.54v3.936h12.54c.673,0 1.406-.081 2.168-.23 .756-.16 1.53-.405 2.272-.743 .75-.337 1.47-.768 2.16-1.298z"/>
<path d="m210.745,13.514h16.891v3.973h-16.891z"/>
<path d="m202.487,1.21c-.107,.243-.159,.496-.159,.776v21.627c0,1.386 .25,2.547 .73,3.449 .489,.938 1.106,1.713 1.835,2.288 .725,.583 1.524,.999 2.375,1.249 .896,.263 1.714,.4 2.436,.4h20.637v-3.936h-20.589c-1.078,0-1.937-.306-2.553-.915-.615-.613-.929-1.464-.929-2.536v-19.682h24.07v-3.93h-26.013c-.294,0-.567,.052-.812,.151-.237,.099-.435,.232-.612,.41-.177,.188-.32,.396-.416,.649z"/>
<path d="m293.566,31h6.12l-12.54-10.813h2.772c.671,0 1.403-.082 2.168-.231 .754-.158 1.523-.407 2.266-.752 .756-.337 1.478-.781 2.168-1.312 .674-.515 1.275-1.152 1.787-1.893 .51-.725 .931-1.588 1.238-2.562 .299-.974 .454-2.102 .454-3.351v-3.834c0-.631-.119-1.335-.34-2.079-.212-.715-.573-1.393-1.063-2.02-.492-.613-1.129-1.131-1.929-1.544-.764-.402-1.749-.609-2.912-.609h-22.796c-.295,0-.557,.052-.801,.151-.238,.099-.448,.233-.614,.411-.179,.187-.319,.395-.428,.648-.095,.243-.146,.496-.146,.776v29.014h3.931v-27.07h20.854c.162,0 .327,.01 .52,.03 .299,.034 .602,.136 .868,.31 .296,.192 .525,.465 .688,.811 .161,.323 .229,.72 .229,1.221v3.785c0,.903-.146,1.748-.441,2.469-.301,.745-.733,1.383-1.303,1.919-.545,.521-1.19,.929-1.935,1.229-.726,.293-1.521,.483-2.375,.543l-.087,.004h-12.545v3.937h3.677l12.515,10.812z"/>
</g>
</svg>
