<svg width="70" xmlns="http://www.w3.org/2000/svg" height="85" viewBox="0 0 70 85" xmlns:xlink="http://www.w3.org/1999/xlink" enable-background="new 0 0 70 85">
<g fill="#fff">
<path d="m69.073,1.196c-1.5,1.881-3.688,4.551-6.422,7.652-5.504,6.19-13.277,14.166-22.213,20.645-4.447,3.229-9.186,6.048-13.942,7.962-4.741,1.914-9.523,2.817-13.627,2.598-2.051-.113-3.927-.471-5.537-.961-1.606-.519-2.975-1.09-4.054-1.688-.558-.263-1.004-.564-1.419-.812-.419-.23-.748-.474-1.021-.659-.548-.384-.838-.587-.838-.587s.262,.242 .765,.675c.243,.223 .551,.501 .933,.794 .39,.291 .814,.649 1.338,.984 1.014,.738 2.347,1.497 3.954,2.221 1.606,.717 3.524,1.332 5.69,1.704 4.325,.772 9.588,.407 14.886-1.033 5.314-1.425 10.682-3.812 15.769-6.646 10.184-5.679 19.248-12.999 25.742-18.755 .313-.28 .615-.555 .923-.83v-14.46c-.272,.351-.582,.749-.927,1.196z"/>
<path d="m64.243,30.297c-5.488,6.197-13.28,14.18-22.188,20.645-4.454,3.237-9.199,6.064-13.956,7.973-4.741,1.916-9.522,2.809-13.624,2.597-2.051-.123-3.931-.472-5.537-.967-1.606-.522-2.979-1.084-4.059-1.692-.556-.264-1.003-.559-1.419-.812-.419-.225-.747-.474-1.017-.657-.546-.377-.841-.582-.841-.582s.261,.235 .765,.684c.247,.204 .553,.483 .933,.777 .39,.296 .818,.657 1.338,.999 1.019,.728 2.352,1.486 3.958,2.206 1.606,.733 3.521,1.342 5.686,1.703 4.329,.773 9.589,.408 14.89-1.032 5.309-1.424 10.691-3.812 15.774-6.637 9.843-5.484 18.605-12.51 25.054-18.171v-13.841c-1.448,1.798-3.384,4.137-5.757,6.807z"/>
<path d="m64.892,51.73c-5.506,6.176-13.279,14.162-22.202,20.644-4.443,3.227-9.198,6.041-13.955,7.947-4.742,1.916-9.51,2.831-13.62,2.596-2.049-.097-3.922-.454-5.534-.959-1.607-.504-2.987-1.091-4.062-1.674-.549-.263-1.007-.582-1.423-.812-.419-.248-.747-.473-1.017-.658-.543-.39-.841-.591-.841-.591s.273,.246 .765,.672c.251,.229 .554,.509 .944,.801 .379,.28 .808,.647 1.333,.979 1.021,.736 2.349,1.488 3.952,2.227 1.609,.709 3.533,1.315 5.687,1.704 4.335,.771 9.588,.407 14.892-1.033 5.307-1.424 10.692-3.811 15.764-6.655 9.518-5.296 18.04-12.047 24.425-17.588v-13.623c-1.359,1.663-3.084,3.718-5.108,6.023z"/>
</g>
</svg>
